<?xml version="1.0" encoding="UTF-8"?>
<svg xmlns="http://www.w3.org/2000/svg" width="1200" height="900" viewBox="0 0 1200 900" role="img" aria-labelledby="chart-title chart-desc">
<title id="chart-title">Paged OLMoE runtime: synchronous versus asynchronous expert pipeline</title>
<desc id="chart-desc">Six paired wall-time observations across empty and retained dynamic expert-cache conditions. In every pair the asynchronous MoEVM pipeline uses less wall time than the synchronous path, while validated tokens, cache counters, transfer bytes, and peak allocated VRAM remain identical.</desc>
<style>
text{font-family:Inter,Segoe UI,Arial,sans-serif;fill:#111827}
.title{font-size:30px;font-weight:700}
.subtitle{font-size:15px;fill:#4B5563}
.panel-title{font-size:18px;font-weight:700}
.body{font-size:14px}
.small{font-size:14px;fill:#4B5563}
.value{font-size:14px;font-weight:650}
.saving{font-size:14px;font-weight:700;fill:#004B76}
.callout{font-size:14px;font-weight:650;fill:#004B76}
.mono{font-family:Consolas,ui-monospace,monospace}
</style>
<rect width="1200" height="900" fill="#FFFFFF"/>
<rect x="42" y="28" width="1116" height="830" rx="14" fill="#FFFFFF" stroke="#D1D5DB"/>
<text x="68.0" y="72.0" class="title" text-anchor="start">Paged OLMoE runtime: sync vs async</text>
<text x="68.0" y="101.0" class="subtitle" text-anchor="start">RTX 3080 Ti · LRU32/layer · 2 teacher-forced tokens · 3 paired repetitions</text>
<rect x="924" y="52" width="194" height="40" rx="20" fill="#E6F4FA" stroke="#8CC6E3"/>
<text x="1021.0" y="78.0" class="callout" text-anchor="middle">Lower wall time: 6 / 6</text>
<rect x="69" y="126" width="12" height="12" fill="#5B6472"/>
<text x="89.0" y="137.0" class="small" text-anchor="start">Sync path</text>
<circle cx="306" cy="132" r="7" fill="#0072B2"/>
<text x="321.0" y="137.0" class="small" text-anchor="start">MoEVM async</text>
<text x="575.0" y="137.0" class="small" text-anchor="middle">Wall time (s, lower is better)</text>
<text x="1062.0" y="137.0" class="small" text-anchor="middle">Wall-time reduction</text>
<rect x="62" y="157" width="1076" height="252" rx="10" fill="#F9FAFB" stroke="#E5E7EB"/>
<rect x="62" y="429" width="1076" height="252" rx="10" fill="#F9FAFB" stroke="#E5E7EB"/>
<line x1="225.0" y1="199" x2="225.0" y2="633" stroke="#E5E7EB" stroke-width="1"/>
<text x="225.0" y="704.0" class="small mono" text-anchor="middle">0</text>
<line x1="400.0" y1="199" x2="400.0" y2="633" stroke="#E5E7EB" stroke-width="1"/>
<text x="400.0" y="704.0" class="small mono" text-anchor="middle">1</text>
<line x1="575.0" y1="199" x2="575.0" y2="633" stroke="#E5E7EB" stroke-width="1"/>
<text x="575.0" y="704.0" class="small mono" text-anchor="middle">2</text>
<line x1="750.0" y1="199" x2="750.0" y2="633" stroke="#E5E7EB" stroke-width="1"/>
<text x="750.0" y="704.0" class="small mono" text-anchor="middle">3</text>
<line x1="925.0" y1="199" x2="925.0" y2="633" stroke="#E5E7EB" stroke-width="1"/>
<text x="925.0" y="704.0" class="small mono" text-anchor="middle">4</text>
<line x1="225" y1="685" x2="925" y2="685" stroke="#6B7280"/>
<text x="82.0" y="187.0" class="panel-title" text-anchor="start">Empty dynamic expert cache</text>
<text x="92.0" y="251.0" class="body mono" text-anchor="start">R1</text>
<line x1="706.3" y1="246.0" x2="837.9" y2="246.0" stroke="#7C8798" stroke-width="2"/>
<circle cx="706.3" cy="246.0" r="7" fill="#0072B2" stroke="#004B76"/>
<rect x="831.9" y="240.0" width="12" height="12" fill="#5B6472" stroke="#374151"/>
<text x="695.3" y="250.0" class="value mono" text-anchor="end">2.750s</text>
<text x="848.9" y="250.0" class="value mono" text-anchor="start">3.502s</text>
<text x="1062.0" y="251.0" class="saving mono" text-anchor="middle">21.5%</text>
<text x="92.0" y="299.0" class="body mono" text-anchor="start">R2</text>
<line x1="681.3" y1="294.0" x2="844.3" y2="294.0" stroke="#7C8798" stroke-width="2"/>
<circle cx="681.3" cy="294.0" r="7" fill="#0072B2" stroke="#004B76"/>
<rect x="838.3" y="288.0" width="12" height="12" fill="#5B6472" stroke="#374151"/>
<text x="670.3" y="298.0" class="value mono" text-anchor="end">2.608s</text>
<text x="855.3" y="298.0" class="value mono" text-anchor="start">3.539s</text>
<text x="1062.0" y="299.0" class="saving mono" text-anchor="middle">26.3%</text>
<text x="92.0" y="347.0" class="body mono" text-anchor="start">R3</text>
<line x1="700.6" y1="342.0" x2="825.5" y2="342.0" stroke="#7C8798" stroke-width="2"/>
<circle cx="700.6" cy="342.0" r="7" fill="#0072B2" stroke="#004B76"/>
<rect x="819.5" y="336.0" width="12" height="12" fill="#5B6472" stroke="#374151"/>
<text x="689.6" y="346.0" class="value mono" text-anchor="end">2.718s</text>
<text x="836.5" y="346.0" class="value mono" text-anchor="start">3.431s</text>
<text x="1062.0" y="347.0" class="saving mono" text-anchor="middle">20.8%</text>
<rect x="744" y="360.0" width="365" height="34" rx="17" fill="#E6F4FA"/>
<text x="926.0" y="382.0" class="callout mono" text-anchor="middle">Median: 21.5% less time · sync/async 1.27×</text>
<text x="82.0" y="459.0" class="panel-title" text-anchor="start">Retained dynamic expert cache</text>
<text x="92.0" y="523.0" class="body mono" text-anchor="start">R1</text>
<line x1="435.0" y1="518.0" x2="523.0" y2="518.0" stroke="#7C8798" stroke-width="2"/>
<circle cx="435.0" cy="518.0" r="7" fill="#0072B2" stroke="#004B76"/>
<rect x="517.0" y="512.0" width="12" height="12" fill="#5B6472" stroke="#374151"/>
<text x="424.0" y="522.0" class="value mono" text-anchor="end">1.200s</text>
<text x="534.0" y="522.0" class="value mono" text-anchor="start">1.703s</text>
<text x="1062.0" y="523.0" class="saving mono" text-anchor="middle">29.5%</text>
<text x="92.0" y="571.0" class="body mono" text-anchor="start">R2</text>
<line x1="436.0" y1="566.0" x2="519.9" y2="566.0" stroke="#7C8798" stroke-width="2"/>
<circle cx="436.0" cy="566.0" r="7" fill="#0072B2" stroke="#004B76"/>
<rect x="513.9" y="560.0" width="12" height="12" fill="#5B6472" stroke="#374151"/>
<text x="425.0" y="570.0" class="value mono" text-anchor="end">1.205s</text>
<text x="530.9" y="570.0" class="value mono" text-anchor="start">1.685s</text>
<text x="1062.0" y="571.0" class="saving mono" text-anchor="middle">28.5%</text>
<text x="92.0" y="619.0" class="body mono" text-anchor="start">R3</text>
<line x1="436.7" y1="614.0" x2="519.5" y2="614.0" stroke="#7C8798" stroke-width="2"/>
<circle cx="436.7" cy="614.0" r="7" fill="#0072B2" stroke="#004B76"/>
<rect x="513.5" y="608.0" width="12" height="12" fill="#5B6472" stroke="#374151"/>
<text x="425.7" y="618.0" class="value mono" text-anchor="end">1.210s</text>
<text x="530.5" y="618.0" class="value mono" text-anchor="start">1.683s</text>
<text x="1062.0" y="619.0" class="saving mono" text-anchor="middle">28.1%</text>
<rect x="744" y="632.0" width="365" height="34" rx="17" fill="#E6F4FA"/>
<text x="926.0" y="654.0" class="callout mono" text-anchor="middle">Median: 28.5% less time · sync/async 1.40×</text>
<rect x="62" y="735" width="1076" height="99" rx="10" fill="#F3F4F6"/>
<text x="82.0" y="764.0" class="body" text-anchor="start">Same validated work in both modes: token IDs, logical hit/miss/eviction counts, transfer bytes and peak VRAM.</text>
<text x="82.0" y="791.0" class="small" text-anchor="start">n=3 pairs · one workload · two tokens. “Cold” means empty GPU expert cache, not cold SSD or OS cache.</text>
<text x="82.0" y="816.0" class="small mono" text-anchor="start">This smoke does not prove physical NVMe/CUDA interval overlap or general production speedup. Commit 91dece7.</text>
</svg>
